<mxfile host="Electron" agent="Mozilla/5.0 (Macintosh; Intel Mac OS X 10_15_7) AppleWebKit/537.36 (KHTML, like Gecko) draw.io/28.1.2 Chrome/138.0.7204.243 Electron/37.4.0 Safari/537.36" version="28.1.2">
  <diagram name="Page-1" id="uGL0BTqR91yUkLjacF7n">
    <mxGraphModel dx="1106" dy="800" grid="1" gridSize="10" guides="1" tooltips="1" connect="1" arrows="1" fold="1" page="1" pageScale="1" pageWidth="850" pageHeight="1100" math="0" shadow="0">
      <root>
        <mxCell id="0" />
        <mxCell id="1" parent="0" />
        <mxCell id="uLYzJgUBDXYvMf7JqhNt-1" value="" style="rounded=0;whiteSpace=wrap;html=1;" parent="1" vertex="1">
          <mxGeometry x="170" y="160" width="680" height="330" as="geometry" />
        </mxCell>
        <mxCell id="uLYzJgUBDXYvMf7JqhNt-2" value="9-15V&lt;div&gt;Input&lt;/div&gt;&lt;div&gt;&lt;i&gt;&lt;font style=&quot;font-size: 9px;&quot;&gt;Terminal block&lt;/font&gt;&lt;/i&gt;&lt;/div&gt;" style="rounded=0;whiteSpace=wrap;html=1;fillColor=#d5e8d4;strokeColor=#82b366;" parent="1" vertex="1">
          <mxGeometry x="180" y="420" width="50" height="60" as="geometry" />
        </mxCell>
        <mxCell id="uLYzJgUBDXYvMf7JqhNt-14" style="edgeStyle=orthogonalEdgeStyle;rounded=0;orthogonalLoop=1;jettySize=auto;html=1;exitX=0.75;exitY=0;exitDx=0;exitDy=0;entryX=0.25;entryY=0;entryDx=0;entryDy=0;startArrow=classic;startFill=1;" parent="1" source="uLYzJgUBDXYvMf7JqhNt-3" target="uLYzJgUBDXYvMf7JqhNt-4" edge="1">
          <mxGeometry relative="1" as="geometry" />
        </mxCell>
        <mxCell id="uLYzJgUBDXYvMf7JqhNt-16" value="x16 Single-Ended" style="edgeLabel;html=1;align=center;verticalAlign=middle;resizable=0;points=[];" parent="uLYzJgUBDXYvMf7JqhNt-14" vertex="1" connectable="0">
          <mxGeometry x="0.0465" y="-1" relative="1" as="geometry">
            <mxPoint x="1" as="offset" />
          </mxGeometry>
        </mxCell>
        <mxCell id="uLYzJgUBDXYvMf7JqhNt-17" style="edgeStyle=orthogonalEdgeStyle;rounded=0;orthogonalLoop=1;jettySize=auto;html=1;exitX=0.5;exitY=0;exitDx=0;exitDy=0;entryX=0.5;entryY=0;entryDx=0;entryDy=0;startArrow=classic;startFill=1;" parent="1" source="uLYzJgUBDXYvMf7JqhNt-3" target="uLYzJgUBDXYvMf7JqhNt-4" edge="1">
          <mxGeometry relative="1" as="geometry">
            <Array as="points">
              <mxPoint x="345" y="180" />
              <mxPoint x="675" y="180" />
            </Array>
          </mxGeometry>
        </mxCell>
        <mxCell id="uLYzJgUBDXYvMf7JqhNt-18" value="x8 Differential Pairs" style="edgeLabel;html=1;align=center;verticalAlign=middle;resizable=0;points=[];" parent="uLYzJgUBDXYvMf7JqhNt-17" vertex="1" connectable="0">
          <mxGeometry x="-0.0146" y="3" relative="1" as="geometry">
            <mxPoint as="offset" />
          </mxGeometry>
        </mxCell>
        <mxCell id="uLYzJgUBDXYvMf7JqhNt-3" value="SOM1" style="rounded=0;whiteSpace=wrap;html=1;fillColor=#dae8fc;strokeColor=#6c8ebf;" parent="1" vertex="1">
          <mxGeometry x="190" y="220" width="310" height="120" as="geometry" />
        </mxCell>
        <mxCell id="uLYzJgUBDXYvMf7JqhNt-4" value="SOM2" style="rounded=0;whiteSpace=wrap;html=1;fillColor=#dae8fc;strokeColor=#6c8ebf;" parent="1" vertex="1">
          <mxGeometry x="520" y="220" width="310" height="120" as="geometry" />
        </mxCell>
        <mxCell id="uLYzJgUBDXYvMf7JqhNt-5" value="TP SE&lt;div&gt;&lt;i&gt;&lt;font style=&quot;font-size: 9px;&quot;&gt;Coax&lt;/font&gt;&lt;/i&gt;&lt;/div&gt;" style="rounded=0;whiteSpace=wrap;html=1;fillColor=#f8cecc;strokeColor=#b85450;" parent="1" vertex="1">
          <mxGeometry x="241" y="430" width="50" height="50" as="geometry" />
        </mxCell>
        <mxCell id="uLYzJgUBDXYvMf7JqhNt-20" style="edgeStyle=orthogonalEdgeStyle;rounded=0;orthogonalLoop=1;jettySize=auto;html=1;entryX=0.522;entryY=1.003;entryDx=0;entryDy=0;entryPerimeter=0;" parent="1" source="uLYzJgUBDXYvMf7JqhNt-6" target="uLYzJgUBDXYvMf7JqhNt-3" edge="1">
          <mxGeometry relative="1" as="geometry" />
        </mxCell>
        <mxCell id="uLYzJgUBDXYvMf7JqhNt-6" value="TP DIFF+&lt;div&gt;&lt;i&gt;&lt;font style=&quot;font-size: 9px;&quot;&gt;Coax&lt;/font&gt;&lt;/i&gt;&lt;/div&gt;" style="rounded=0;whiteSpace=wrap;html=1;fillColor=#f8cecc;strokeColor=#b85450;" parent="1" vertex="1">
          <mxGeometry x="301" y="430" width="50" height="50" as="geometry" />
        </mxCell>
        <mxCell id="uLYzJgUBDXYvMf7JqhNt-7" value="TP DIFF-&lt;div&gt;&lt;i&gt;&lt;font style=&quot;font-size: 9px;&quot;&gt;Coax&lt;/font&gt;&lt;/i&gt;&lt;/div&gt;" style="rounded=0;whiteSpace=wrap;html=1;fillColor=#f8cecc;strokeColor=#b85450;" parent="1" vertex="1">
          <mxGeometry x="361" y="430" width="50" height="50" as="geometry" />
        </mxCell>
        <mxCell id="uLYzJgUBDXYvMf7JqhNt-8" value="Reset&lt;div&gt;SOM1&lt;/div&gt;&lt;div&gt;&lt;i&gt;&lt;font style=&quot;font-size: 9px;&quot;&gt;Button&lt;/font&gt;&lt;/i&gt;&lt;/div&gt;" style="rounded=0;whiteSpace=wrap;html=1;fillColor=#fff2cc;strokeColor=#d6b656;" parent="1" vertex="1">
          <mxGeometry x="431" y="430" width="50" height="50" as="geometry" />
        </mxCell>
        <mxCell id="uLYzJgUBDXYvMf7JqhNt-9" value="Reset&lt;div&gt;SOM2&lt;/div&gt;&lt;div&gt;&lt;i&gt;&lt;font style=&quot;font-size: 9px;&quot;&gt;Button&lt;/font&gt;&lt;/i&gt;&lt;/div&gt;" style="rounded=0;whiteSpace=wrap;html=1;fillColor=#fff2cc;strokeColor=#d6b656;" parent="1" vertex="1">
          <mxGeometry x="491" y="430" width="50" height="50" as="geometry" />
        </mxCell>
        <mxCell id="uLYzJgUBDXYvMf7JqhNt-10" value="USER1&lt;br&gt;&lt;div&gt;&lt;i&gt;&lt;font style=&quot;font-size: 9px;&quot;&gt;Button&lt;/font&gt;&lt;/i&gt;&lt;/div&gt;" style="rounded=0;whiteSpace=wrap;html=1;fillColor=#fff2cc;strokeColor=#d6b656;" parent="1" vertex="1">
          <mxGeometry x="551" y="430" width="50" height="50" as="geometry" />
        </mxCell>
        <mxCell id="uLYzJgUBDXYvMf7JqhNt-11" value="USER2&lt;br&gt;&lt;div&gt;&lt;i&gt;&lt;font style=&quot;font-size: 9px;&quot;&gt;Button&lt;/font&gt;&lt;/i&gt;&lt;/div&gt;" style="rounded=0;whiteSpace=wrap;html=1;fillColor=#fff2cc;strokeColor=#d6b656;" parent="1" vertex="1">
          <mxGeometry x="611" y="430" width="50" height="50" as="geometry" />
        </mxCell>
        <mxCell id="uLYzJgUBDXYvMf7JqhNt-12" value="LEDs" style="rounded=0;whiteSpace=wrap;html=1;fillColor=#ffe6cc;strokeColor=#d79b00;" parent="1" vertex="1">
          <mxGeometry x="676" y="430" width="50" height="50" as="geometry" />
        </mxCell>
        <mxCell id="uLYzJgUBDXYvMf7JqhNt-29" style="edgeStyle=orthogonalEdgeStyle;rounded=0;orthogonalLoop=1;jettySize=auto;html=1;entryX=0.5;entryY=1;entryDx=0;entryDy=0;endArrow=none;endFill=0;" parent="1" source="uLYzJgUBDXYvMf7JqhNt-13" target="uLYzJgUBDXYvMf7JqhNt-28" edge="1">
          <mxGeometry relative="1" as="geometry" />
        </mxCell>
        <mxCell id="uLYzJgUBDXYvMf7JqhNt-13" value="UART-to-USB" style="rounded=0;whiteSpace=wrap;html=1;fillColor=#e1d5e7;strokeColor=#9673a6;" parent="1" vertex="1">
          <mxGeometry x="740" y="420" width="100" height="60" as="geometry" />
        </mxCell>
        <mxCell id="uLYzJgUBDXYvMf7JqhNt-19" style="edgeStyle=orthogonalEdgeStyle;rounded=0;orthogonalLoop=1;jettySize=auto;html=1;entryX=0.245;entryY=1;entryDx=0;entryDy=0;entryPerimeter=0;" parent="1" source="uLYzJgUBDXYvMf7JqhNt-5" target="uLYzJgUBDXYvMf7JqhNt-3" edge="1">
          <mxGeometry relative="1" as="geometry">
            <Array as="points" />
          </mxGeometry>
        </mxCell>
        <mxCell id="uLYzJgUBDXYvMf7JqhNt-21" style="edgeStyle=orthogonalEdgeStyle;rounded=0;orthogonalLoop=1;jettySize=auto;html=1;entryX=0.558;entryY=1.003;entryDx=0;entryDy=0;entryPerimeter=0;" parent="1" source="uLYzJgUBDXYvMf7JqhNt-7" target="uLYzJgUBDXYvMf7JqhNt-3" edge="1">
          <mxGeometry relative="1" as="geometry" />
        </mxCell>
        <mxCell id="uLYzJgUBDXYvMf7JqhNt-22" style="edgeStyle=orthogonalEdgeStyle;rounded=0;orthogonalLoop=1;jettySize=auto;html=1;entryX=0.709;entryY=1.003;entryDx=0;entryDy=0;entryPerimeter=0;" parent="1" source="uLYzJgUBDXYvMf7JqhNt-8" target="uLYzJgUBDXYvMf7JqhNt-3" edge="1">
          <mxGeometry relative="1" as="geometry">
            <Array as="points">
              <mxPoint x="456" y="420" />
              <mxPoint x="410" y="420" />
            </Array>
          </mxGeometry>
        </mxCell>
        <mxCell id="uLYzJgUBDXYvMf7JqhNt-23" style="edgeStyle=orthogonalEdgeStyle;rounded=0;orthogonalLoop=1;jettySize=auto;html=1;entryX=0.085;entryY=0.998;entryDx=0;entryDy=0;entryPerimeter=0;" parent="1" source="uLYzJgUBDXYvMf7JqhNt-9" target="uLYzJgUBDXYvMf7JqhNt-4" edge="1">
          <mxGeometry relative="1" as="geometry">
            <Array as="points">
              <mxPoint x="516" y="420" />
              <mxPoint x="546" y="420" />
            </Array>
          </mxGeometry>
        </mxCell>
        <mxCell id="uLYzJgUBDXYvMf7JqhNt-24" style="edgeStyle=orthogonalEdgeStyle;rounded=0;orthogonalLoop=1;jettySize=auto;html=1;shadow=0;noJump=0;jumpStyle=arc;" parent="1" source="uLYzJgUBDXYvMf7JqhNt-10" edge="1">
          <mxGeometry relative="1" as="geometry">
            <mxPoint x="440" y="340" as="targetPoint" />
            <Array as="points">
              <mxPoint x="576" y="410" />
              <mxPoint x="440" y="410" />
              <mxPoint x="440" y="340" />
            </Array>
          </mxGeometry>
        </mxCell>
        <mxCell id="uLYzJgUBDXYvMf7JqhNt-25" style="edgeStyle=orthogonalEdgeStyle;rounded=0;orthogonalLoop=1;jettySize=auto;html=1;entryX=0.837;entryY=1.005;entryDx=0;entryDy=0;entryPerimeter=0;jumpStyle=arc;" parent="1" source="uLYzJgUBDXYvMf7JqhNt-11" target="uLYzJgUBDXYvMf7JqhNt-3" edge="1">
          <mxGeometry relative="1" as="geometry">
            <Array as="points">
              <mxPoint x="636" y="400" />
              <mxPoint x="450" y="400" />
              <mxPoint x="450" y="341" />
            </Array>
          </mxGeometry>
        </mxCell>
        <mxCell id="uLYzJgUBDXYvMf7JqhNt-26" style="edgeStyle=orthogonalEdgeStyle;rounded=0;orthogonalLoop=1;jettySize=auto;html=1;entryX=0.872;entryY=1.003;entryDx=0;entryDy=0;entryPerimeter=0;jumpStyle=arc;" parent="1" source="uLYzJgUBDXYvMf7JqhNt-12" target="uLYzJgUBDXYvMf7JqhNt-3" edge="1">
          <mxGeometry relative="1" as="geometry">
            <Array as="points">
              <mxPoint x="701" y="390" />
              <mxPoint x="460" y="390" />
              <mxPoint x="460" y="340" />
            </Array>
          </mxGeometry>
        </mxCell>
        <mxCell id="uLYzJgUBDXYvMf7JqhNt-27" value="x2" style="edgeLabel;html=1;align=center;verticalAlign=middle;resizable=0;points=[];" parent="uLYzJgUBDXYvMf7JqhNt-26" vertex="1" connectable="0">
          <mxGeometry x="-0.5487" y="-1" relative="1" as="geometry">
            <mxPoint as="offset" />
          </mxGeometry>
        </mxCell>
        <mxCell id="uLYzJgUBDXYvMf7JqhNt-28" value="UART&lt;div&gt;Selector&lt;/div&gt;&lt;div&gt;&lt;i&gt;&lt;font style=&quot;font-size: 9px;&quot;&gt;Jumper&lt;/font&gt;&lt;/i&gt;&lt;/div&gt;" style="rounded=0;whiteSpace=wrap;html=1;fillColor=#e1d5e7;strokeColor=#9673a6;" parent="1" vertex="1">
          <mxGeometry x="760" y="350" width="60" height="50" as="geometry" />
        </mxCell>
        <mxCell id="uLYzJgUBDXYvMf7JqhNt-30" style="edgeStyle=orthogonalEdgeStyle;rounded=0;orthogonalLoop=1;jettySize=auto;html=1;exitX=0;exitY=0.25;exitDx=0;exitDy=0;entryX=0.679;entryY=1;entryDx=0;entryDy=0;entryPerimeter=0;" parent="1" source="uLYzJgUBDXYvMf7JqhNt-28" target="uLYzJgUBDXYvMf7JqhNt-4" edge="1">
          <mxGeometry relative="1" as="geometry" />
        </mxCell>
        <mxCell id="uLYzJgUBDXYvMf7JqhNt-31" style="edgeStyle=orthogonalEdgeStyle;rounded=0;orthogonalLoop=1;jettySize=auto;html=1;exitX=0.004;exitY=0.601;exitDx=0;exitDy=0;entryX=0.965;entryY=1.004;entryDx=0;entryDy=0;entryPerimeter=0;exitPerimeter=0;jumpStyle=arc;" parent="1" source="uLYzJgUBDXYvMf7JqhNt-28" target="uLYzJgUBDXYvMf7JqhNt-3" edge="1">
          <mxGeometry relative="1" as="geometry">
            <Array as="points">
              <mxPoint x="489" y="380" />
            </Array>
          </mxGeometry>
        </mxCell>
      </root>
    </mxGraphModel>
  </diagram>
</mxfile>
